<?xml version="1.0" encoding="UTF-8" standalone="no"?>
<svg
   xmlns:dc="http://purl.org/dc/elements/1.1/"
   xmlns:cc="http://creativecommons.org/ns#"
   xmlns:rdf="http://www.w3.org/1999/02/22-rdf-syntax-ns#"
   xmlns:svg="http://www.w3.org/2000/svg"
   xmlns="http://www.w3.org/2000/svg"
   xmlns:sodipodi="http://sodipodi.sourceforge.net/DTD/sodipodi-0.dtd"
   xmlns:inkscape="http://www.inkscape.org/namespaces/inkscape"
   height="500"
   width="900"
   version="1.1"
   id="svg2"
   inkscape:version="0.48.4 r9939"
   sodipodi:docname="coindesk-bpi-chart.svg">
  <metadata
     id="metadata385">
    <rdf:RDF>
      <cc:Work
         rdf:about="">
        <dc:format>image/svg+xml</dc:format>
        <dc:type
           rdf:resource="http://purl.org/dc/dcmitype/StillImage" />
        <dc:title></dc:title>
      </cc:Work>
    </rdf:RDF>
  </metadata>
  <sodipodi:namedview
     pagecolor="#ffffff"
     bordercolor="#666666"
     borderopacity="1"
     objecttolerance="10"
     gridtolerance="10"
     guidetolerance="10"
     inkscape:pageopacity="0"
     inkscape:pageshadow="2"
     inkscape:window-width="1680"
     inkscape:window-height="989"
     id="namedview383"
     showgrid="false"
     inkscape:zoom="0.89777778"
     inkscape:cx="378.39197"
     inkscape:cy="178.60888"
     inkscape:window-x="0"
     inkscape:window-y="25"
     inkscape:window-maximized="1"
     inkscape:current-layer="svg2">
    <inkscape:grid
       type="xygrid"
       id="grid3362" />
  </sodipodi:namedview>
  <desc
     id="desc4">Created with Highstock 1.3.7</desc>
  <defs
     id="defs6">
    <clipPath
       id="highcharts-23">
      <rect
         height="388"
         width="880"
         y="0"
         x="0"
         fill="none"
         id="rect9" />
    </clipPath>
  </defs>
  <g
     id="g4173"
     transform="matrix(1.0133761,0,0,1.244908,-5.4496015,-42.476225)">
    <path
       d="m 10,368.5 880,0"
       id="path49"
       inkscape:connector-curvature="0"
       style="fill:none;stroke:#e8e8e8;stroke-width:0.89031976" />
    <path
       d="m 10,312.5 880,0"
       id="path51"
       inkscape:connector-curvature="0"
       style="fill:none;stroke:#e8e8e8;stroke-width:0.89031976" />
    <path
       d="m 10,257.5 880,0"
       id="path53"
       inkscape:connector-curvature="0"
       style="fill:none;stroke:#e8e8e8;stroke-width:0.89031976" />
    <path
       d="m 10,201.5 880,0"
       id="path55"
       inkscape:connector-curvature="0"
       style="fill:none;stroke:#e8e8e8;stroke-width:0.89031976" />
    <path
       d="m 10,146.5 880,0"
       id="path57"
       inkscape:connector-curvature="0"
       style="fill:none;stroke:#e8e8e8;stroke-width:0.89031976" />
    <path
       d="m 10,90.5 880,0"
       id="path59"
       inkscape:connector-curvature="0"
       style="fill:none;stroke:#e8e8e8;stroke-width:0.89031976" />
    <path
       d="m 10,34.5 880,0"
       id="path61"
       inkscape:connector-curvature="0"
       style="fill:none;stroke:#e8e8e8;stroke-width:0.89031976" />
  </g>
  <text
     style="font-family:arial;font-size:13px;color:#8a8a8a;margin-top:-10px;fill:#8a8a8a;"
     y="25"
     x="10"
     id="text13" />
  <g
     transform="matrix(0.587147,0,0,0.58521059,721.11131,-38.431564)"
     class="highcharts-input-group"
     id="g15">
    <g
       style="fill:#8a8a8a"
       id="g17">
      <text
         style="font-size:13px;color:#8a8a8a;fill:#8a8a8a;font-family:arial"
         y="15"
         x="1"
         id="text19" />
    </g>
    <g
       transform="translate(7,0)"
       style="text-align:center"
       id="g21">
      <rect
         height="18"
         width="92"
         y="0.5"
         x="0.5"
         ry="0"
         rx="0"
         id="rect23"
         style="fill:none;stroke:#d8d8d8;stroke-width:1.70596647" />
      <text
         style="font-size:12px;color:#8a8a8a;fill:#8a8a8a;font-family:arial"
         y="14"
         x="12.5"
         id="text25">
        <tspan
           x="12.5"
           id="tspan27">Jul 18, 2010</tspan>
      </text>
    </g>
    <g
       transform="translate(109,0)"
       style="fill:#8a8a8a"
       id="g29">
      <text
         style="font-size:13px;color:#8a8a8a;fill:#8a8a8a;font-family:arial"
         y="15"
         x="1"
         id="text31">
        <tspan
           x="1"
           id="tspan33">to</tspan>
      </text>
    </g>
    <g
       transform="translate(127,0)"
       style="text-align:center"
       id="g35">
      <rect
         height="18"
         width="92"
         y="0.5"
         x="0.5"
         ry="0"
         rx="0"
         id="rect37"
         style="fill:none;stroke:#d8d8d8;stroke-width:1.70596647" />
      <text
         style="font-size:12px;color:#8a8a8a;fill:#8a8a8a;font-family:arial"
         y="14"
         x="9"
         id="text39">
        <tspan
           x="9"
           id="tspan41">May 23, 2015</tspan>
      </text>
    </g>
  </g>
  <g
     class="highcharts-grid"
     id="g45" />
  <path
     style="fill:none;stroke:#e8e8e8;stroke-width:1"
     inkscape:connector-curvature="0"
     id="path63"
     d="m 379.9789,447.48865 516.68936,0" />
  <g
     class="highcharts-grid"
     id="g65"
     transform="matrix(0.587147,0,0,0.58521059,374.10743,199.65197)">
    <path
       d="m 273.5,445 0,40"
       id="path67"
       inkscape:connector-curvature="0"
       style="fill:none;stroke:#c0c0c0;stroke-width:1.70596647" />
    <path
       d="m 455.5,445 0,40"
       id="path69"
       inkscape:connector-curvature="0"
       style="fill:none;stroke:#c0c0c0;stroke-width:1.70596647" />
    <path
       d="m 637.5,445 0,40"
       id="path71"
       inkscape:connector-curvature="0"
       style="fill:none;stroke:#c0c0c0;stroke-width:1.70596647" />
    <path
       d="m 818.5,445 0,40"
       id="path73"
       inkscape:connector-curvature="0"
       style="fill:none;stroke:#c0c0c0;stroke-width:1.70596647" />
    <path
       d="m 92.5,445 0,40"
       id="path75"
       inkscape:connector-curvature="0"
       style="fill:none;stroke:#c0c0c0;stroke-width:1.70596647" />
  </g>
  <g
     class="highcharts-grid"
     id="g77" />
  <g
     class="highcharts-axis"
     id="g79"
     transform="matrix(0.587147,0,0,0.58521059,374.10743,199.65197)">
    <path
       d="m 273.5,423 0,5"
       id="path81"
       inkscape:connector-curvature="0"
       style="fill:none;stroke:#ffffff;stroke-width:1.70596647" />
    <path
       d="m 455.5,423 0,5"
       id="path83"
       inkscape:connector-curvature="0"
       style="fill:none;stroke:#ffffff;stroke-width:1.70596647" />
    <path
       d="m 637.5,423 0,5"
       id="path85"
       inkscape:connector-curvature="0"
       style="fill:none;stroke:#ffffff;stroke-width:1.70596647" />
    <path
       d="m 818.5,423 0,5"
       id="path87"
       inkscape:connector-curvature="0"
       style="fill:none;stroke:#ffffff;stroke-width:1.70596647" />
    <path
       d="m 92.5,423 0,5"
       id="path89"
       inkscape:connector-curvature="0"
       style="fill:none;stroke:#ffffff;stroke-width:1.70596647" />
    <path
       visibility="visible"
       d="m 10,423.5 880,0"
       id="path91"
       inkscape:connector-curvature="0"
       style="fill:none;stroke:#ffffff;stroke-width:1.70596647;visibility:visible" />
  </g>
  <g
     class="highcharts-axis"
     id="g93" />
  <g
     class="highcharts-axis"
     id="g95" />
  <g
     class="highcharts-axis"
     id="g97" />
  <path
     style="fill:none;stroke:#c0c0c0;stroke-width:22;stroke-linejoin:round;stroke-opacity:0.00009999;visibility:visible"
     class=" highcharts-tracker"
     visibility="visible"
     d="m 375.61318,416.36115 5.87147,0 2.0428,5.5e-4 2.04279,4.6e-4 2.04279,-0.001 2.04279,-2.2e-4 2.04279,0.002 2.04279,0 2.04279,0 2.04279,0 2.04279,0 2.04279,0 2.0428,-0.002 2.04279,-0.004 2.04279,-0.001 2.04279,-0.0113 2.04279,-0.0135 2.04279,10e-4 2.04279,-0.002 2.04279,-0.003 2.0428,0.009 2.04279,10e-4 2.04279,-0.004 2.04279,-0.002 2.04279,-0.006 2.04279,-0.002 2.04279,-0.008 2.04279,-0.004 2.04279,-0.009 2.04279,-0.0514 2.0428,-0.0422 2.04279,0.004 2.04279,0.0125 2.04279,-2.3e-4 2.04279,0.004 2.04279,0.0106 2.04279,-0.002 2.04279,0.008 2.0428,0.009 2.04279,-0.0371 2.04279,-0.0637 2.04279,-0.17192 2.04279,-0.17238 2.04279,-0.45157 2.04279,-0.0811 2.04279,-0.22475 2.04279,-0.70875 2.0428,-1.63461 2.04279,0.75185 2.04279,0.0968 2.04279,0.19996 2.04279,0.30028 2.04279,0.0711 2.04279,0.0199 2.04279,0.006 2.04279,0.61029 2.04279,0.0412 2.04279,-0.24745 2.0428,0.23448 2.04279,0.2018 2.04279,0.36191 2.04279,0.1557 2.04279,-0.0424 2.04279,0.10241 2.0428,0.0598 2.04279,0.10055 2.04279,0.21131 2.04279,-0.0616 2.04279,-0.0157 2.04279,0.0208 2.04279,0.11886 2.04279,-0.0239 2.04279,-0.0748 2.04279,-0.0251 2.04279,-0.0271 2.04279,-0.11678 2.0428,-0.0772 2.04279,-0.29078 2.04279,-0.0767 2.04279,0.0697 2.04279,0.0811 2.0428,-0.0146 2.04279,0.025 2.04279,0.19115 2.04279,-0.0334 2.04279,-0.0222 2.04279,-0.0162 2.04279,-0.0526 2.04279,0.0869 2.04279,-0.0155 2.04279,-0.0127 2.04279,-0.006 2.04279,-0.0359 2.0428,0.0162 2.04279,-0.002 2.04279,0.0118 2.04279,-0.0162 2.04279,-0.007 2.0428,-0.0111 2.04279,-0.0484 2.04279,-0.0878 2.04279,-0.076 2.04279,-0.0106 2.04279,-0.015 2.04279,-0.12419 2.04279,-0.21085 2.04279,-0.005 2.04279,-0.23401 2.04279,-0.16798 2.04279,-0.0827 2.0428,0.24374 2.04279,-0.0526 2.04279,-0.0517 2.04279,-0.10194 2.04279,-0.12142 2.04279,-0.006 2.04279,-0.0449 2.0428,0.10542 2.04279,0.0201 2.04279,0.1286 2.04279,0.0424 2.04279,-0.0206 2.04279,-0.0751 2.04279,-0.13091 2.04279,-0.0445 2.04279,-0.14388 2.04279,-0.0394 2.0428,0.0215 2.04279,-0.001 2.04279,2.3e-4 2.04279,-0.0894 2.04279,-0.18652 2.04279,-0.36538 2.04279,-0.40593 2.04279,-0.36052 2.04279,-0.64249 2.04279,-0.54055 2.04279,-0.54054 2.04279,-1.56395 2.0428,-0.73216 2.04279,-2.86515 2.04279,-3.50161 2.04279,-7.72543 2.04279,-1.6462 2.0428,6.72543 2.04279,-5.76899 2.04279,3.08804 2.04279,0.85334 2.04279,-0.81117 2.04279,-1.44995 2.04279,-0.15848 2.04279,2.27293 2.04279,1.72753 2.04279,-0.61771 2.04279,1.30005 2.04279,3.84128 2.0428,-1.44091 2.04279,-0.557 2.04279,-0.0686 2.04279,-1.22127 2.04279,0.18281 2.04279,-0.43234 2.0428,-1.65199 2.04279,-2.06742 2.04279,-0.0526 2.04279,-0.45992 2.04279,-0.0428 2.04279,0.10705 2.04279,0.82854 2.04279,-1.20992 2.04279,-3.30722 2.04279,-5.9599 2.04279,-2.41682 2.0428,-13.61119 2.04279,-19.1603 2.04279,-45.41374 2.04279,-48.559 2.04279,5.46617 2.04279,7.59961 2.0428,42.2972 2.04279,-12.7194 2.04279,-16.3167 2.04279,-10.46778 2.04279,4.3816 2.04279,-1.11747 2.04279,3.31904 2.04279,12.31903 2.04279,19.62855 2.04279,7.35982 2.04279,6.70087 2.0428,-14.31161 2.04279,2.41079 2.04279,6.68744 2.04279,10.27639 2.04279,11.28474 2.04279,5.62626 2.0428,-12.16448 2.04279,3.89943 2.04279,4.8429 2.04279,0.80167 2.04279,-0.73215 2.04279,-10.70504 2.04279,-13.90289 2.04279,-9.47867 2.04279,7.02779 2.04279,2.20065 2.04279,1.74883 2.04279,-8.21337 2.0428,1.92005 2.04279,0.37443 2.04279,2.53614 2.04279,3.73029 2.04279,-0.64619 2.04279,9.36838 2.04279,4.83803 2.04279,-0.57947 2.04279,3.82159 2.04279,0.74375 2.04279,7.33084 2.0428,3.82182 2.04279,7.54957 2.04279,0.99189 2.04279,-5.60194 2.04279,3.83341 2.04279,4.29981 2.0428,-0.51784 2.04279,-8.16681 2.04279,4.15871 2.04279,-1.33179 2.04279,-0.27457 2.04279,4.05723 2.04279,4.32321 2.04279,0.0598 2.04279,3.48331 2.04279,3.45365 2.04279,10.80536 2.0428,-2.78012 2.04279,-1.1784 2.04279,2.0563 2.04279,-0.66033 2.04279,-1.56604 2.04279,-0.88507 2.0428,-4.80051 2.04279,-2.26018 2.04279,3.27849 2.04279,3.06302 2.04279,-0.22359 2.04279,1.24513 2.04279,3.28544 2.04279,-1.041 2.04279,-0.43606 2.04279,-0.99119 2.04279,0.0493 2.0428,0.29576 5.87147,0"
     id="path105"
     inkscape:connector-curvature="0" />
  <g
     id="g107"
     class="highcharts-markers highcharts-tracker"
     visibility="visible"
     transform="translate(10,35)"
     style="visibility:visible"
     clip-path="none" />
  <g
     style="visibility:visible"
     id="g119"
     class="highcharts-markers"
     visibility="visible"
     transform="translate(10,35)"
     clip-path="none" />
  <g
     style="visibility:visible"
     id="g131"
     class="highcharts-markers"
     visibility="visible"
     transform="translate(10,35)"
     clip-path="none" />
  <g
     style="visibility:visible"
     id="g143"
     class="highcharts-markers"
     visibility="visible"
     transform="translate(10,35)"
     clip-path="none" />
  <g
     style="visibility:visible"
     id="g155"
     class="highcharts-markers"
     visibility="visible"
     transform="translate(10,35)"
     clip-path="none" />
  <g
     style="visibility:visible"
     id="g167"
     class="highcharts-markers"
     visibility="visible"
     transform="translate(10,35)"
     clip-path="none" />
  <g
     style="visibility:visible"
     id="g179"
     class="highcharts-markers"
     visibility="visible"
     transform="translate(10,35)"
     clip-path="none" />
  <g
     style="visibility:visible"
     id="g191"
     class="highcharts-markers"
     visibility="visible"
     transform="translate(10,35)"
     clip-path="none" />
  <g
     style="visibility:visible"
     id="g203"
     class="highcharts-markers"
     visibility="visible"
     transform="translate(10,35)"
     clip-path="none" />
  <g
     style="visibility:visible"
     id="g211"
     class="highcharts-markers"
     visibility="visible"
     transform="translate(10,445)" />
  <g
     class="highcharts-axis-labels"
     id="g255"
     transform="translate(1003.4265,-289.84377)">
    <text
       style="font-size:11px;line-height:14px;text-anchor:start;color:#8a8a8a;fill:#8a8a8a;font-family:'proximanova, &quot;helvetica neue&quot;, helvetica, arial, sans-serif'"
       y="365.57144"
       x="12"
       id="text261">
      <tspan
         x="12"
         id="tspan263">$0</tspan>
    </text>
    <text
       style="font-size:11px;line-height:14px;text-anchor:start;color:#8a8a8a;fill:#8a8a8a;font-family:'proximanova, &quot;helvetica neue&quot;, helvetica, arial, sans-serif'"
       y="310.14285"
       x="12"
       id="text265">
      <tspan
         x="12"
         id="tspan267">$200</tspan>
    </text>
    <text
       style="font-size:11px;line-height:14px;text-anchor:start;color:#8a8a8a;fill:#8a8a8a;font-family:'proximanova, &quot;helvetica neue&quot;, helvetica, arial, sans-serif'"
       y="254.71428"
       x="12"
       id="text269">
      <tspan
         x="12"
         id="tspan271">$400</tspan>
    </text>
    <text
       style="font-size:11px;line-height:14px;text-anchor:start;color:#8a8a8a;fill:#8a8a8a;font-family:'proximanova, &quot;helvetica neue&quot;, helvetica, arial, sans-serif'"
       y="199.28572"
       x="12"
       id="text273">
      <tspan
         x="12"
         id="tspan275">$600</tspan>
    </text>
    <text
       style="font-size:11px;line-height:14px;text-anchor:start;color:#8a8a8a;fill:#8a8a8a;font-family:'proximanova, &quot;helvetica neue&quot;, helvetica, arial, sans-serif'"
       y="143.85715"
       x="12"
       id="text277">
      <tspan
         x="12"
         id="tspan279">$800</tspan>
    </text>
    <text
       style="font-size:11px;line-height:14px;text-anchor:start;color:#8a8a8a;fill:#8a8a8a;font-family:'proximanova, &quot;helvetica neue&quot;, helvetica, arial, sans-serif'"
       y="88.428574"
       x="12"
       id="text281">
      <tspan
         x="12"
         id="tspan283">$1000</tspan>
    </text>
  </g>
  <g
     class="highcharts-axis-labels"
     id="g311" />
  <g
     transform="translate(0,-999)"
     style="cursor:default;padding:0;white-space:nowrap;"
     class="highcharts-tooltip"
     id="g377">
    <rect
       height="16"
       width="16"
       y="0"
       x="0"
       fill="#e6e6e6"
       ry="3"
       rx="3"
       id="rect379" />
    <text
       style="font-family:proximanova, 'helvetica neue', helvetica, arial, sans-serif;font-size:12px;color:#333333;fill:#333333;"
       y="21"
       x="8"
       id="text381" />
  </g>
  <g
     id="g3372"
     class="highcharts-grid"
     transform="matrix(0.587147,0,0,0.58521059,-52.138509,199.65197)">
    <path
       id="path3374"
       d="m 273.5,445 0,40"
       inkscape:connector-curvature="0"
       style="fill:none;stroke:#c0c0c0;stroke-width:1.70596647" />
    <path
       id="path3376"
       d="m 455.5,445 0,40"
       inkscape:connector-curvature="0"
       style="fill:none;stroke:#c0c0c0;stroke-width:1.70596647" />
    <path
       id="path3378"
       d="m 637.5,445 0,40"
       inkscape:connector-curvature="0"
       style="fill:none;stroke:#c0c0c0;stroke-width:1.70596647" />
    <path
       id="path3382"
       d="m 92.5,445 0,40"
       inkscape:connector-curvature="0"
       style="fill:none;stroke:#c0c0c0;stroke-width:1.70596647" />
  </g>
  <path
     id="path4154"
     style="fill:none;stroke:#2c5aa0;stroke-width:1.99999976;stroke-linecap:butt;stroke-linejoin:miter;stroke-miterlimit:4;stroke-opacity:1;stroke-dasharray:none"
     d="m 896.26802,334.97032 -2.0428,-0.62917 -2.04279,-0.10494 -2.04279,2.10855 -2.04279,0.92761 -2.04279,2.21452 -2.04279,-6.98907 -2.04279,-2.64875 -2.04279,0.47564 -2.04279,-6.51591 -2.04279,-6.97427 -2.04279,4.80806 -2.0428,10.21202 -2.04279,1.88281 -2.04279,3.3314 -2.04279,1.4047 -2.04279,-4.37433 -2.04279,2.5068 -2.0428,5.91409 -2.04279,-22.98605 -2.04279,-7.34688 -2.04279,-7.40999 -2.04279,-0.12717 -2.04279,-9.19668 -2.04279,-8.63086 -2.04279,0.58407 -2.04279,2.83309 -2.04279,-8.84674 -2.04279,17.3731 -2.0428,1.10159 -2.04279,-9.14691 -2.04279,-8.15473 -2.04279,11.9169 -2.04279,-2.11003 -2.04279,-16.06006 -2.0428,-8.13009 -2.04279,-15.59477 -2.04279,-1.58216 -2.04279,-8.12959 -2.04279,1.23269 -2.04279,-10.29187 -2.04279,-19.92918 -2.04279,1.37464 -2.04279,-7.93539 -2.04279,-5.39508 -2.04279,-0.79651 -2.0428,-4.0845 -2.04279,17.47217 -2.04279,-3.72027 -2.04279,-4.6814 -2.04279,-14.95009 -2.04279,20.1638 -2.04279,29.57538 -2.04279,22.77262 -2.04279,1.55751 -2.04279,-1.70538 -2.04279,-10.30222 -2.04279,-8.2952 -2.0428,25.87728 -2.04279,-11.96864 -2.04279,-24.00582 -2.04279,-21.86079 -2.04279,-14.22606 -2.04279,-5.12843 -2.0428,30.44483 -2.04279,-14.25464 -2.04279,-15.6564 -2.04279,-41.75547 -2.04279,-26.20605 -2.04279,-7.06053 -2.04279,2.37716 -2.04279,-9.32088 -2.04279,22.26792 -2.04279,34.71022 -2.04279,27.05774 -2.0428,-89.97806 -2.04279,-16.166526 -2.04279,-11.628076 -2.04279,103.298692 -2.04279,96.60781 -2.04279,40.75936 -2.0428,28.95484 -2.04279,5.14126 -2.04279,12.6784 -2.04279,7.03539 -2.04279,2.57383 -2.04279,-1.76254 -2.04279,-0.22772 -2.04279,0.0911 -2.04279,0.97837 -2.04279,0.11192 -2.04279,4.39799 -2.0428,3.51424 -2.04279,0.91972 -2.04279,-0.38888 -2.04279,2.59798 -2.04279,0.14589 -2.04279,1.1849 -2.0428,3.06522 -2.04279,-8.17149 -2.04279,-2.76557 -2.04279,1.31404 -2.04279,-3.67494 -2.04279,-4.83516 -2.04279,0.33712 -2.04279,3.08446 -2.04279,1.72558 -2.04279,-1.81528 -2.04279,-6.56914 -2.04279,12.27227 -2.0428,-14.30688 -2.04279,3.50192 -2.04279,16.43417 -2.04279,7.44892 -2.04279,6.09499 -2.0428,1.55749 -2.04279,3.32696 -2.04279,1.1499 -2.04279,1.14989 -2.04279,1.36676 -2.04279,0.76692 -2.04279,0.86352 -2.04279,0.77729 -2.04279,0.39676 -2.04279,0.19026 -2.04279,-4.9e-4 -2.04279,0.003 -2.0428,-0.0458 -2.04279,0.0838 -2.04279,0.30608 -2.04279,0.0946 -2.04279,0.27849 -2.04279,0.15969 -2.04279,0.0438 -2.04279,-0.0903 -2.04279,-0.27355 -2.04279,-0.0428 -2.0428,-0.22427 -2.04279,0.0956 -2.04279,0.0125 -2.04279,0.25829 -2.04279,0.21686 -2.04279,0.10992 -2.04279,0.11192 -2.0428,-0.5185 -2.04279,0.17595 -2.04279,0.35734 -2.04279,0.49782 -2.04279,0.01 -2.04279,0.44853 -2.04279,0.26418 -2.04279,0.032 -2.04279,0.0226 -2.04279,0.16166 -2.04279,0.1868 -2.04279,0.10295 -2.0428,0.0236 -2.04279,0.0153 -2.04279,0.0345 -2.04279,-0.0252 -2.04279,0.004 -2.0428,-0.0345 -2.04279,0.0764 -2.04279,0.0125 -2.04279,0.0271 -2.04279,0.033 -2.04279,-0.18483 -2.04279,0.11191 -2.04279,0.0345 -2.04279,0.0473 -2.04279,0.071 -2.04279,-0.40661 -2.04279,-0.0533 -2.0428,0.031 -2.04279,-0.1725 -2.04279,-0.14835 -2.04279,0.16314 -2.04279,0.61857 -2.0428,0.16413 -2.04279,0.2484 -2.04279,0.0576 -2.04279,0.0533 -2.04279,0.15919 -2.04279,0.0508 -2.04279,-0.25284 -2.04279,-0.0443 -2.04279,0.0335 -2.04279,0.1311 -2.04279,-0.44951 -2.04279,-0.21392 -2.0428,-0.12715 -2.04279,-0.21786 -2.04279,0.0903 -2.04279,-0.33121 -2.04279,-0.76989 -2.04279,-0.42929 -2.0428,-0.4988 -2.04279,0.5264 -2.04279,-0.0878 -2.04279,-1.29825 -2.04279,-0.0125 -2.04279,-0.0423 -2.04279,-0.15132 -2.04279,-0.63878 -2.04279,-0.42536 -2.04279,-0.20602 -2.04279,-1.5994 -2.0428,3.47728 -2.04279,1.50772 -2.04279,0.4781 -2.04279,0.17252 -2.04279,0.96061 -2.04279,0.36671 -2.04279,0.36573 -2.04279,0.13552 -2.04279,0.0789 -2.0428,-0.0191 -2.04279,-0.0178 -2.04279,0.004 -2.04279,-0.0226 -2.04279,-0.007 -2.04279,4.8e-4 -2.04279,-0.0266 -2.04279,-0.009 -2.0428,0.0898 -2.04279,0.10943 -2.04279,0.0187 -2.04279,0.009 -2.04279,0.0163 -2.04279,0.005 -2.04279,0.0133 -2.04279,0.004 -2.04279,0.009 -2.04279,-0.003 -2.0428,-0.0197 -2.04279,0.006 -2.04279,0.005 -2.04279,-0.003 -2.04279,0.0286 -2.04279,0.0242 -2.04279,0.003 -2.04279,0.007 -2.0428,0.005 -2.04279,0 -2.04279,0 -2.04279,0 -2.04279,0 -2.04279,0 -2.04279,-0.004 -2.04279,4.8e-4 -2.04279,0.003 -2.04279,-5.9e-4 -8.50529,-10e-4 -0.77638,0.003 -263.6188,0"
     inkscape:connector-curvature="0"
     sodipodi:nodetypes="ccccccccccccccccccccccccccccccccccccccccccccccccccccccccccccccccccccccccccccccccccccccccccccccccccccccccccccccccccccccccccccccccccccccccccccccccccccccccccccccccccccccccccccccccccccccccccccccccccccccccccccccccccccccccccccccccccccccccccccccccccccccccccccccc" />
</svg>
