<?xml version="1.0" encoding="UTF-8" standalone="no"?>
<!-- Created with Inkscape (http://www.inkscape.org/) -->

<svg
   xmlns:dc="http://purl.org/dc/elements/1.1/"
   xmlns:cc="http://creativecommons.org/ns#"
   xmlns:rdf="http://www.w3.org/1999/02/22-rdf-syntax-ns#"
   xmlns:svg="http://www.w3.org/2000/svg"
   xmlns="http://www.w3.org/2000/svg"
   xmlns:sodipodi="http://sodipodi.sourceforge.net/DTD/sodipodi-0.dtd"
   xmlns:inkscape="http://www.inkscape.org/namespaces/inkscape"
   width="389.56015"
   height="309.27982"
   id="svg4952"
   version="1.1"
   inkscape:version="0.48.4 r9939"
   sodipodi:docname="transacion.svg">
  <defs
     id="defs4954" />
  <sodipodi:namedview
     id="base"
     pagecolor="#3f3f3f"
     bordercolor="#666666"
     borderopacity="1.0"
     inkscape:pageopacity="1"
     inkscape:pageshadow="2"
     inkscape:zoom="1.979899"
     inkscape:cx="125.24807"
     inkscape:cy="178.99882"
     inkscape:document-units="px"
     inkscape:current-layer="layer5"
     showgrid="false"
     fit-margin-top="0"
     fit-margin-left="0"
     fit-margin-right="0"
     fit-margin-bottom="0"
     inkscape:window-width="1680"
     inkscape:window-height="989"
     inkscape:window-x="0"
     inkscape:window-y="25"
     inkscape:window-maximized="1" />
  <metadata
     id="metadata4957">
    <rdf:RDF>
      <cc:Work
         rdf:about="">
        <dc:format>image/svg+xml</dc:format>
        <dc:type
           rdf:resource="http://purl.org/dc/dcmitype/StillImage" />
        <dc:title></dc:title>
      </cc:Work>
    </rdf:RDF>
  </metadata>
  <g
     inkscape:label="Ebene 1"
     inkscape:groupmode="layer"
     id="layer1"
     transform="translate(74.778862,-57.720176)">
    <path
       transform="translate(-292.36399,-43.129392)"
       sodipodi:type="arc"
       style="fill:#000000;fill-opacity:0;stroke:#ffffff;stroke-width:3;stroke-linecap:square;stroke-linejoin:miter;stroke-miterlimit:4;stroke-opacity:1;stroke-dasharray:none;stroke-dashoffset:0"
       id="path4075"
       sodipodi:cx="235"
       sodipodi:cy="137.36218"
       sodipodi:rx="10"
       sodipodi:ry="10"
       d="m 245,137.36218 c 0,5.52285 -4.47715,10 -10,10 -5.52285,0 -10,-4.47715 -10,-10 0,-5.52284 4.47715,-10 10,-10 5.52285,0 10,4.47716 10,10 z" />
    <path
       style="fill:#ffffff;fill-opacity:1;stroke:#ffffff;stroke-width:3;stroke-linejoin:round;stroke-miterlimit:4;stroke-dasharray:none"
       d="m -57.237724,108.77848 c 13.37373,0 13.37373,25.33938 13.37373,44.34391 l -26.74746,0 c 0,-19.00453 0,-44.34391 13.37373,-44.34391 z"
       id="path4077"
       inkscape:connector-curvature="0"
       sodipodi:nodetypes="cccc" />
    <text
       sodipodi:linespacing="125%"
       id="text4087"
       y="73.768448"
       x="-74.778862"
       style="font-size:22.48075294px;font-style:normal;font-variant:normal;font-weight:normal;font-stretch:normal;line-height:125%;letter-spacing:0px;word-spacing:0px;fill:#ffffff;fill-opacity:1;stroke:none;font-family:Droid Sans;-inkscape-font-specification:Droid Sans"
       xml:space="preserve"><tspan
         y="73.768448"
         x="-74.778862"
         id="tspan4089"
         sodipodi:role="line">You</tspan></text>
    <path
       d="m 245,137.36218 c 0,5.52285 -4.47715,10 -10,10 -5.52285,0 -10,-4.47715 -10,-10 0,-5.52284 4.47715,-10 10,-10 5.52285,0 10,4.47716 10,10 z"
       sodipodi:ry="10"
       sodipodi:rx="10"
       sodipodi:cy="137.36218"
       sodipodi:cx="235"
       id="path4159"
       style="fill:#000000;fill-opacity:0;stroke:#ffffff;stroke-width:3;stroke-linecap:square;stroke-linejoin:miter;stroke-miterlimit:4;stroke-opacity:1;stroke-dasharray:none;stroke-dashoffset:0"
       sodipodi:type="arc"
       transform="translate(64.778865,-43.129392)" />
    <path
       sodipodi:nodetypes="cccc"
       inkscape:connector-curvature="0"
       id="path4161"
       d="m 299.90514,108.77848 c 13.37373,0 13.37373,25.33938 13.37373,44.34391 l -26.74746,0 c 0,-19.00453 0,-44.34391 13.37373,-44.34391 z"
       style="fill:#ffffff;fill-opacity:1;stroke:#ffffff;stroke-width:3;stroke-linejoin:round;stroke-miterlimit:4;stroke-dasharray:none" />
    <text
       xml:space="preserve"
       style="font-size:22.48075294px;font-style:normal;font-variant:normal;font-weight:normal;font-stretch:normal;line-height:125%;letter-spacing:0px;word-spacing:0px;fill:#ffffff;fill-opacity:1;stroke:none;font-family:Droid Sans;-inkscape-font-specification:Droid Sans"
       x="283.57147"
       y="73.768448"
       id="text4163"
       sodipodi:linespacing="125%"><tspan
         sodipodi:role="line"
         id="tspan4165"
         x="283.57147"
         y="73.768448">Me</tspan></text>
  </g>
  <g
     inkscape:groupmode="layer"
     id="layer3"
     inkscape:label="2"
     style="display:none">
    <path
       transform="translate(-132.58513,-100.45997)"
       sodipodi:type="arc"
       style="fill:none;stroke:#ffffff;stroke-width:3;stroke-linecap:round;stroke-linejoin:miter;stroke-miterlimit:4;stroke-opacity:1;stroke-dasharray:3, 6;stroke-dashoffset:0"
       id="path2987"
       sodipodi:cx="235"
       sodipodi:cy="137.36218"
       sodipodi:rx="10"
       sodipodi:ry="10"
       d="m 245,137.36218 a 10,10 0 1 1 -20,0 10,10 0 1 1 20,0 z" />
    <path
       style="fill:none;stroke:#ffffff;stroke-width:3;stroke-linecap:round;stroke-linejoin:round;stroke-miterlimit:4;stroke-dasharray:3, 6;stroke-dashoffset:0"
       d="m 102.54114,51.447904 c 13.37373,0 13.37373,25.33938 13.37373,44.34391 l -26.747462,0 c 0,-19.00453 0,-44.34391 13.373732,-44.34391 z"
       id="path3757"
       inkscape:connector-curvature="0"
       sodipodi:nodetypes="cccc" />
    <path
       d="m 245,137.36218 a 10,10 0 1 1 -20,0 10,10 0 1 1 20,0 z"
       sodipodi:ry="10"
       sodipodi:rx="10"
       sodipodi:cy="137.36218"
       sodipodi:cx="235"
       id="path3763"
       style="fill:none;stroke:#ffffff;stroke-width:3;stroke-linecap:round;stroke-linejoin:miter;stroke-miterlimit:4;stroke-opacity:1;stroke-dasharray:3, 6;stroke-dashoffset:0"
       sodipodi:type="arc"
       transform="translate(57.414868,-100.45997)" />
    <path
       sodipodi:nodetypes="cccc"
       inkscape:connector-curvature="0"
       id="path3765"
       d="m 292.54113,51.447904 c 13.37373,0 13.37373,25.33938 13.37373,44.34391 l -26.74745,0 c 0,-19.00453 0,-44.34391 13.37373,-44.34391 z"
       style="fill:none;stroke:#ffffff;stroke-width:3;stroke-linecap:round;stroke-linejoin:round;stroke-miterlimit:4;stroke-dasharray:3, 6;stroke-dashoffset:0" />
    <text
       sodipodi:linespacing="125%"
       id="text4091"
       y="86.001335"
       x="95.708008"
       style="font-size:22.48075294px;font-style:normal;font-variant:normal;font-weight:normal;font-stretch:normal;line-height:125%;letter-spacing:0px;word-spacing:0px;fill:#ffffff;fill-opacity:1;stroke:none;font-family:Droid Sans;-inkscape-font-specification:Droid Sans"
       xml:space="preserve"><tspan
         y="86.001335"
         x="95.708008"
         id="tspan4093"
         sodipodi:role="line">A</tspan></text>
    <text
       xml:space="preserve"
       style="font-size:22.48075294px;font-style:normal;font-variant:normal;font-weight:normal;font-stretch:normal;line-height:125%;letter-spacing:0px;word-spacing:0px;fill:#ffffff;fill-opacity:1;stroke:none;font-family:Droid Sans;-inkscape-font-specification:Droid Sans"
       x="286.48486"
       y="86.001335"
       id="text4095"
       sodipodi:linespacing="125%"><tspan
         sodipodi:role="line"
         id="tspan4097"
         x="286.48486"
         y="86.001335">Z</tspan></text>
    <path
       d="m 323.38344,66.902216 -5,5 5,5 m 26.45609,-5 -28.25372,0"
       style="fill:none;stroke:#ffffff;stroke-width:3;stroke-linecap:round;stroke-linejoin:miter;stroke-miterlimit:4;stroke-opacity:1;stroke-dashoffset:0;display:inline"
       id="path5673"
       inkscape:connector-curvature="0"
       sodipodi:nodetypes="ccccc" />
    <path
       sodipodi:nodetypes="ccccc"
       inkscape:connector-curvature="0"
       id="path3077"
       style="fill:none;stroke:#ffffff;stroke-width:3;stroke-linecap:round;stroke-linejoin:miter;stroke-miterlimit:4;stroke-opacity:1;stroke-dashoffset:0;display:inline"
       d="m 70.583113,66.902216 5,5 -5,5 m -26.45609,-5 28.25372,0" />
  </g>
  <g
     inkscape:groupmode="layer"
     id="layer2"
     inkscape:label="2b"
     style="display:none">
    <g
       style="display:inline"
       id="g3799"
       transform="matrix(0.32130144,0,0,0.32130144,117.07458,35.928203)">
      <path
         id="path3801"
         d="M 63.033,39.744 C 58.759,56.887 41.396,67.32 24.251,63.045 7.113,58.771 -3.32,41.407 0.956,24.265 5.228,7.12 22.591,-3.314 39.731,0.96 56.875,5.234 67.307,22.6 63.033,39.744 z"
         inkscape:connector-curvature="0"
         style="fill:#f7931a" />
      <path
         id="path3803"
         d="M 46.103,27.444 C 46.74,23.186 43.498,20.897 39.065,19.37 l 1.438,-5.768 -3.511,-0.875 -1.4,5.616 c -0.923,-0.23 -1.871,-0.447 -2.813,-0.662 l 1.41,-5.653 -3.509,-0.875 -1.439,5.766 c -0.764,-0.174 -1.514,-0.346 -2.242,-0.527 l 0.004,-0.018 -4.842,-1.209 -0.934,3.75 c 0,0 2.605,0.597 2.55,0.634 1.422,0.355 1.679,1.296 1.636,2.042 l -1.638,6.571 c 0.098,0.025 0.225,0.061 0.365,0.117 -0.117,-0.029 -0.242,-0.061 -0.371,-0.092 l -2.296,9.205 c -0.174,0.432 -0.615,1.08 -1.609,0.834 0.035,0.051 -2.552,-0.637 -2.552,-0.637 l -1.743,4.019 4.569,1.139 c 0.85,0.213 1.683,0.436 2.503,0.646 l -1.453,5.834 3.507,0.875 1.439,-5.772 c 0.958,0.26 1.888,0.5 2.798,0.726 l -1.434,5.745 3.511,0.875 1.453,-5.823 c 5.987,1.133 10.489,0.676 12.384,-4.739 1.527,-4.36 -0.076,-6.875 -3.226,-8.515 2.294,-0.529 4.022,-2.038 4.483,-5.155 z m -8.022,11.249 c -1.085,4.36 -8.426,2.003 -10.806,1.412 l 1.928,-7.729 c 2.38,0.594 10.012,1.77 8.878,6.317 z m 1.086,-11.312 c -0.99,3.966 -7.1,1.951 -9.082,1.457 l 1.748,-7.01 c 1.982,0.494 8.365,1.416 7.334,5.553 z"
         inkscape:connector-curvature="0"
         style="fill:#ffffff" />
    </g>
  </g>
  <g
     inkscape:groupmode="layer"
     id="layer4"
     inkscape:label="3"
     style="display:none"
     sodipodi:insensitive="true">
    <path
       style="font-size:medium;font-style:normal;font-variant:normal;font-weight:normal;font-stretch:normal;text-indent:0;text-align:start;text-decoration:none;line-height:normal;letter-spacing:normal;word-spacing:normal;text-transform:none;direction:ltr;block-progression:tb;writing-mode:lr-tb;text-anchor:start;baseline-shift:baseline;color:#000000;fill:#ffffff;fill-opacity:1;fill-rule:nonzero;stroke:none;stroke-width:3;marker:none;visibility:visible;display:inline;overflow:visible;enable-background:accumulate;font-family:Sans;-inkscape-font-specification:Sans"
       d="m 153.16101,166.91503 c -0.73192,0.0767 -1.34769,0.76408 -1.34375,1.5 l 0,17 c 8e-5,0.78538 0.71462,1.49992 1.5,1.5 l 18.5,-0.0128 5,-10 -5,-10 c 0,0 -12.45352,0.009 -18.65625,0.0128 z"
       id="rect3828"
       inkscape:connector-curvature="0"
       sodipodi:nodetypes="cccccccc" />
    <path
       transform="translate(-191.08513,38.040034)"
       sodipodi:type="arc"
       style="fill:#999999;fill-opacity:0;stroke:#666666;stroke-width:3;stroke-linecap:square;stroke-linejoin:miter;stroke-miterlimit:4;stroke-opacity:1;stroke-dasharray:none;stroke-dashoffset:0;display:inline"
       id="path3767"
       sodipodi:cx="235"
       sodipodi:cy="137.36218"
       sodipodi:rx="10"
       sodipodi:ry="10"
       d="m 245,137.36218 a 10,10 0 1 1 -20,0 10,10 0 1 1 20,0 z" />
    <path
       style="fill:#666666;fill-opacity:1;stroke:#666666;stroke-width:3;stroke-miterlimit:4;stroke-opacity:1;stroke-dasharray:none;display:inline"
       d="m 44.041138,189.9479 c 13.37373,0 13.37373,25.33938 13.37373,44.34391 l -26.74746,0 c 0,-19.00453 0,-44.34391 13.37373,-44.34391 z"
       id="path3769"
       inkscape:connector-curvature="0"
       sodipodi:nodetypes="cccc" />
    <path
       d="m 245,137.36218 a 10,10 0 1 1 -20,0 10,10 0 1 1 20,0 z"
       sodipodi:ry="10"
       sodipodi:rx="10"
       sodipodi:cy="137.36218"
       sodipodi:cx="235"
       id="path3771"
       style="fill:#999999;fill-opacity:0;stroke:#666666;stroke-width:3;stroke-linecap:square;stroke-linejoin:miter;stroke-miterlimit:4;stroke-opacity:1;stroke-dasharray:none;stroke-dashoffset:0;display:inline"
       sodipodi:type="arc"
       transform="translate(111.43446,14.034043)" />
    <path
       sodipodi:nodetypes="cccc"
       inkscape:connector-curvature="0"
       id="path3773"
       d="m 346.56072,165.94191 c 13.37374,0 13.37374,25.33938 13.37374,44.34391 l -26.74746,0 c 0,-19.00453 0,-44.34391 13.37373,-44.34391 z"
       style="fill:#666666;fill-opacity:1;stroke:#666666;stroke-width:3;stroke-miterlimit:4;stroke-opacity:1;stroke-dasharray:none;display:inline" />
    <path
       transform="translate(63.662907,107.60366)"
       sodipodi:type="arc"
       style="fill:#999999;fill-opacity:0;stroke:#666666;stroke-width:3;stroke-linecap:square;stroke-linejoin:miter;stroke-miterlimit:4;stroke-opacity:1;stroke-dasharray:none;stroke-dashoffset:0;display:inline"
       id="path3775"
       sodipodi:cx="235"
       sodipodi:cy="137.36218"
       sodipodi:rx="10"
       sodipodi:ry="10"
       d="m 245,137.36218 a 10,10 0 1 1 -20,0 10,10 0 1 1 20,0 z" />
    <path
       style="fill:#666666;fill-opacity:1;stroke:#666666;stroke-width:3;stroke-miterlimit:4;stroke-opacity:1;stroke-dasharray:none;display:inline"
       d="m 298.78918,259.51153 c 13.37373,0 13.37373,25.33938 13.37373,44.34391 l -26.74746,0 c 0,-19.00453 0,-44.34391 13.37373,-44.34391 z"
       id="path3777"
       inkscape:connector-curvature="0"
       sodipodi:nodetypes="cccc" />
    <path
       transform="translate(-142.38463,104.56885)"
       sodipodi:type="arc"
       style="fill:#999999;fill-opacity:0;stroke:#666666;stroke-width:3;stroke-linecap:square;stroke-linejoin:miter;stroke-miterlimit:4;stroke-opacity:1;stroke-dasharray:none;stroke-dashoffset:0;display:inline"
       id="path3783"
       sodipodi:cx="235"
       sodipodi:cy="137.36218"
       sodipodi:rx="10"
       sodipodi:ry="10"
       d="m 245,137.36218 a 10,10 0 1 1 -20,0 10,10 0 1 1 20,0 z" />
    <path
       style="fill:#666666;fill-opacity:1;stroke:#666666;stroke-width:3;stroke-miterlimit:4;stroke-opacity:1;stroke-dasharray:none;display:inline"
       d="m 92.741638,256.47672 c 13.373732,0 13.373732,25.33938 13.373732,44.34391 l -26.747462,0 c 0,-19.00453 0,-44.34391 13.37373,-44.34391 z"
       id="path3785"
       inkscape:connector-curvature="0"
       sodipodi:nodetypes="cccc" />
    <path
       style="fill:none;stroke:#ff990f;stroke-width:3;stroke-linecap:round;stroke-linejoin:miter;stroke-miterlimit:2;stroke-opacity:1;stroke-dasharray:none;stroke-dashoffset:0;display:inline"
       d="m 133.98689,65.730674 c 44.7532,-12.75646 84.63646,-12.99409 133.42797,1.17154"
       id="path3787"
       inkscape:connector-curvature="0"
       sodipodi:nodetypes="cc" />
    <path
       inkscape:connector-curvature="0"
       id="path3795"
       d="m 264.71863,61.100094 3.53553,6.12373 -6.12372,3.53553"
       style="fill:none;stroke:#ff990f;stroke-width:3;stroke-linecap:round;stroke-linejoin:miter;stroke-miterlimit:4;stroke-opacity:1;stroke-dasharray:none;display:inline" />
    <path
       sodipodi:nodetypes="cc"
       inkscape:connector-curvature="0"
       id="path3957"
       d="m 116.58033,113.43445 c 7.20879,20.88594 9.07381,23.96725 26.22795,43.71247"
       style="fill:none;stroke:#ffffff;stroke-width:3;stroke-linecap:round;stroke-linejoin:miter;stroke-miterlimit:2;stroke-opacity:1;stroke-dasharray:none;stroke-dashoffset:0;display:inline" />
    <path
       style="fill:none;stroke:#ffffff;stroke-width:3;stroke-linecap:round;stroke-linejoin:miter;stroke-miterlimit:4;stroke-opacity:1;stroke-dasharray:none;display:inline"
       d="m 144.03308,151.37755 -0.13632,7.06975 -7.06975,-0.13631"
       id="path3959"
       inkscape:connector-curvature="0" />
    <path
       style="fill:none;stroke:#666666;stroke-width:3;stroke-linecap:round;stroke-linejoin:miter;stroke-miterlimit:4;stroke-opacity:1;stroke-dasharray:none;display:inline"
       d="m 108.62263,226.27736 26.68794,-22.90729"
       id="path4003"
       inkscape:connector-curvature="0" />
    <path
       style="fill:none;stroke:#666666;stroke-width:3;stroke-linecap:round;stroke-linejoin:miter;stroke-miterlimit:4;stroke-opacity:1;stroke-dasharray:none;display:inline"
       d="m 136.77533,208.73328 0.13652,-7.06975 -7.06973,-0.13653"
       id="path4005"
       inkscape:connector-curvature="0" />
    <path
       inkscape:connector-curvature="0"
       id="path4007"
       d="m 66.284928,173.7802 67.460632,3.08643"
       style="fill:none;stroke:#666666;stroke-width:3;stroke-linecap:round;stroke-linejoin:miter;stroke-miterlimit:4;stroke-opacity:1;stroke-dasharray:none;display:inline"
       sodipodi:nodetypes="cc" />
    <path
       inkscape:connector-curvature="0"
       id="path4009"
       d="m 131.14185,181.77888 4.9392,-5.06006 -5.06005,-4.93921"
       style="fill:none;stroke:#666666;stroke-width:3;stroke-linecap:round;stroke-linejoin:miter;stroke-miterlimit:4;stroke-opacity:1;stroke-dasharray:none;display:inline"
       sodipodi:nodetypes="ccc" />
    <path
       sodipodi:nodetypes="cc"
       style="fill:none;stroke:#666666;stroke-width:3;stroke-linecap:round;stroke-linejoin:miter;stroke-miterlimit:4;stroke-opacity:1;stroke-dasharray:none;display:inline"
       d="M 326.51497,155.70136 267.2516,167.10955"
       id="path4011"
       inkscape:connector-curvature="0" />
    <path
       sodipodi:nodetypes="ccc"
       style="fill:none;stroke:#666666;stroke-width:3;stroke-linecap:round;stroke-linejoin:miter;stroke-miterlimit:4;stroke-opacity:1;stroke-dasharray:none;display:inline"
       d="m 270.59037,171.55501 -5.66869,-4.2268 4.22679,-5.6687"
       id="path4013"
       inkscape:connector-curvature="0" />
    <path
       inkscape:connector-curvature="0"
       id="path4019"
       d="M 282.04182,228.6868 261.11886,200.41632"
       style="fill:none;stroke:#666666;stroke-width:3;stroke-linecap:round;stroke-linejoin:miter;stroke-miterlimit:4;stroke-opacity:1;stroke-dasharray:none;display:inline" />
    <path
       inkscape:connector-curvature="0"
       id="path4021"
       d="m 258.49766,205.31927 1.43971,-6.92296 6.92293,1.4397"
       style="fill:none;stroke:#666666;stroke-width:3;stroke-linecap:round;stroke-linejoin:miter;stroke-miterlimit:4;stroke-opacity:1;stroke-dasharray:none;display:inline" />
    <path
       style="font-size:medium;font-style:normal;font-variant:normal;font-weight:normal;font-stretch:normal;text-indent:0;text-align:start;text-decoration:none;line-height:normal;letter-spacing:normal;word-spacing:normal;text-transform:none;direction:ltr;block-progression:tb;writing-mode:lr-tb;text-anchor:start;baseline-shift:baseline;color:#000000;fill:#ffffff;fill-opacity:1;fill-rule:nonzero;stroke:none;stroke-width:2.99999976;marker:none;visibility:visible;display:inline;overflow:visible;enable-background:accumulate;font-family:Sans;-inkscape-font-specification:Sans"
       d="m 228.75861,166.91503 c -0.73192,0.0767 -1.34769,0.76408 -1.34375,1.5 l 0,17 c 8e-5,0.78538 0.71462,1.49992 1.5,1.5 l 17,0 c 0.78539,-8e-5 1.49993,-0.71462 1.5,-1.5 l 0,-17 c -7e-5,-0.78538 -0.71461,-1.49992 -1.5,-1.5 l -17,0 c -0.052,-0.003 -0.1042,-0.003 -0.15625,0 z"
       id="rect4041"
       inkscape:connector-curvature="0"
       sodipodi:nodetypes="cccccccccc" />
    <path
       sodipodi:nodetypes="cccccccc"
       inkscape:connector-curvature="0"
       id="path4048"
       d="m 178.75864,166.91503 c -0.73192,0.0767 -1.34769,0.76408 -1.34375,1.5 l 0,17 c 8e-5,0.78538 0.71462,1.49992 1.5,1.5 l 43.49997,-0.0128 5,-10 -5,-10 c 0,0 -37.45349,0.009 -43.65622,0.0128 z"
       style="font-size:medium;font-style:normal;font-variant:normal;font-weight:normal;font-stretch:normal;text-indent:0;text-align:start;text-decoration:none;line-height:normal;letter-spacing:normal;word-spacing:normal;text-transform:none;direction:ltr;block-progression:tb;writing-mode:lr-tb;text-anchor:start;baseline-shift:baseline;color:#000000;fill:#ffffff;fill-opacity:1;fill-rule:nonzero;stroke:none;stroke-width:3;marker:none;visibility:visible;display:inline;overflow:visible;enable-background:accumulate;font-family:Sans;-inkscape-font-specification:Sans" />
    <text
       xml:space="preserve"
       style="font-size:13.65428638px;font-style:normal;font-variant:normal;font-weight:normal;font-stretch:normal;line-height:125%;letter-spacing:0px;word-spacing:0px;fill:#333333;fill-opacity:1;stroke:none;display:inline;font-family:Droid Sans;-inkscape-font-specification:Droid Sans"
       x="185.22704"
       y="181.80994"
       id="text4058"
       sodipodi:linespacing="125%"><tspan
         sodipodi:role="line"
         id="tspan4060"
         x="185.22704"
         y="181.80994">1BTC</tspan></text>
    <text
       sodipodi:linespacing="125%"
       id="text4062"
       y="181.80994"
       x="158.40474"
       style="font-size:13.65428638px;font-style:normal;font-variant:normal;font-weight:normal;font-stretch:normal;line-height:125%;letter-spacing:0px;word-spacing:0px;fill:#333333;fill-opacity:1;stroke:none;display:inline;font-family:Droid Sans;-inkscape-font-specification:Droid Sans"
       xml:space="preserve"><tspan
         y="181.80994"
         x="158.40474"
         id="tspan4064"
         sodipodi:role="line">A</tspan></text>
    <text
       xml:space="preserve"
       style="font-size:13.65428638px;font-style:normal;font-variant:normal;font-weight:normal;font-stretch:normal;line-height:125%;letter-spacing:0px;word-spacing:0px;fill:#333333;fill-opacity:1;stroke:none;display:inline;font-family:Droid Sans;-inkscape-font-specification:Droid Sans"
       x="232.74615"
       y="181.80994"
       id="text4066"
       sodipodi:linespacing="125%"><tspan
         sodipodi:role="line"
         id="tspan4068"
         x="232.74615"
         y="181.80994">Z</tspan></text>
    <path
       transform="translate(-131.32751,-100.07608)"
       d="m 265,167.36218 a 5,5 0 1 1 -10,0 5,5 0 1 1 10,0 z"
       sodipodi:ry="5"
       sodipodi:rx="5"
       sodipodi:cy="167.36218"
       sodipodi:cx="260"
       id="path4179"
       style="fill:none;stroke:#ff990f;stroke-width:3;stroke-linecap:square;stroke-linejoin:miter;stroke-miterlimit:4;stroke-opacity:1;stroke-dasharray:none;stroke-dashoffset:0;display:inline"
       sodipodi:type="arc" />
    <path
       sodipodi:type="arc"
       style="fill:none;stroke:#ffffff;stroke-width:3;stroke-linecap:square;stroke-linejoin:miter;stroke-miterlimit:4;stroke-opacity:1;stroke-dasharray:none;stroke-dashoffset:0;display:inline"
       id="path4181"
       sodipodi:cx="260"
       sodipodi:cy="167.36218"
       sodipodi:rx="5"
       sodipodi:ry="5"
       d="m 265,167.36218 a 5,5 0 1 1 -10,0 5,5 0 1 1 10,0 z"
       transform="translate(-145.25609,-58.647511)" />
  </g>
  <g
     inkscape:groupmode="layer"
     id="layer5"
     inkscape:label="4"
     style="display:none"
     sodipodi:insensitive="true">
    <path
       style="fill:none;stroke:#2ca05a;stroke-width:3;stroke-linecap:round;stroke-linejoin:miter;stroke-miterlimit:4;stroke-opacity:1;stroke-dasharray:none;display:inline"
       d="m 93.414868,159.90221 5,5 5.000002,-15"
       id="path4029"
       inkscape:connector-curvature="0" />
    <path
       inkscape:connector-curvature="0"
       id="path4031"
       d="m 107.16361,204.86959 5,5 5,-15"
       style="fill:none;stroke:#2ca05a;stroke-width:3;stroke-linecap:round;stroke-linejoin:miter;stroke-miterlimit:4;stroke-opacity:1;stroke-dasharray:none;display:inline" />
    <path
       style="fill:none;stroke:#2ca05a;stroke-width:3;stroke-linecap:round;stroke-linejoin:miter;stroke-miterlimit:4;stroke-opacity:1;stroke-dasharray:none;display:inline"
       d="m 281.69991,211.08079 5,5 5,-15"
       id="path4033"
       inkscape:connector-curvature="0" />
    <path
       inkscape:connector-curvature="0"
       id="path4035"
       d="m 294.55596,148.67342 5,5 5,-15"
       style="fill:none;stroke:#2ca05a;stroke-width:3;stroke-linecap:round;stroke-linejoin:miter;stroke-miterlimit:4;stroke-opacity:1;stroke-dasharray:none;display:inline" />
    <path
       sodipodi:nodetypes="cccccccc"
       inkscape:connector-curvature="0"
       id="path4189"
       d="m 153.16101,211.79466 c -0.73192,0.0767 -1.34769,0.76408 -1.34375,1.5 l 0,17 c 8e-5,0.78538 0.71462,1.49992 1.5,1.5 l 18.5,-0.0128 5,-10 -5,-10 c 0,0 -12.45352,0.009 -18.65625,0.0128 z"
       style="font-size:medium;font-style:normal;font-variant:normal;font-weight:normal;font-stretch:normal;text-indent:0;text-align:start;text-decoration:none;line-height:normal;letter-spacing:normal;word-spacing:normal;text-transform:none;direction:ltr;block-progression:tb;writing-mode:lr-tb;text-anchor:start;baseline-shift:baseline;color:#000000;fill:#999999;fill-opacity:1;fill-rule:nonzero;stroke:none;stroke-width:3;marker:none;visibility:visible;display:inline;overflow:visible;enable-background:accumulate;font-family:Sans;-inkscape-font-specification:Sans" />
    <path
       sodipodi:nodetypes="cccccccccc"
       inkscape:connector-curvature="0"
       id="path4191"
       d="m 228.75861,211.79466 c -0.73192,0.0767 -1.34769,0.76408 -1.34375,1.5 l 0,17 c 8e-5,0.78538 0.71462,1.49992 1.5,1.5 l 17,0 c 0.78539,-8e-5 1.49993,-0.71462 1.5,-1.5 l 0,-17 c -7e-5,-0.78538 -0.71461,-1.49992 -1.5,-1.5 l -17,0 c -0.052,-0.003 -0.1042,-0.003 -0.15625,0 z"
       style="font-size:medium;font-style:normal;font-variant:normal;font-weight:normal;font-stretch:normal;text-indent:0;text-align:start;text-decoration:none;line-height:normal;letter-spacing:normal;word-spacing:normal;text-transform:none;direction:ltr;block-progression:tb;writing-mode:lr-tb;text-anchor:start;baseline-shift:baseline;color:#000000;fill:#999999;fill-opacity:1;fill-rule:nonzero;stroke:none;stroke-width:2.99999976;marker:none;visibility:visible;display:inline;overflow:visible;enable-background:accumulate;font-family:Sans;-inkscape-font-specification:Sans" />
    <path
       style="font-size:medium;font-style:normal;font-variant:normal;font-weight:normal;font-stretch:normal;text-indent:0;text-align:start;text-decoration:none;line-height:normal;letter-spacing:normal;word-spacing:normal;text-transform:none;direction:ltr;block-progression:tb;writing-mode:lr-tb;text-anchor:start;baseline-shift:baseline;color:#000000;fill:#999999;fill-opacity:1;fill-rule:nonzero;stroke:none;stroke-width:3;marker:none;visibility:visible;display:inline;overflow:visible;enable-background:accumulate;font-family:Sans;-inkscape-font-specification:Sans"
       d="m 178.75864,211.79466 c -0.73192,0.0767 -1.34769,0.76408 -1.34375,1.5 l 0,17 c 8e-5,0.78538 0.71462,1.49992 1.5,1.5 l 43.49997,-0.0128 5,-10 -5,-10 c 0,0 -37.45349,0.009 -43.65622,0.0128 z"
       id="path4193"
       inkscape:connector-curvature="0"
       sodipodi:nodetypes="cccccccc" />
    <text
       sodipodi:linespacing="125%"
       id="text4195"
       y="226.68958"
       x="185.22704"
       style="font-size:13.65428638px;font-style:normal;font-variant:normal;font-weight:normal;font-stretch:normal;line-height:125%;letter-spacing:0px;word-spacing:0px;fill:#333333;fill-opacity:1;stroke:none;display:inline;font-family:Droid Sans;-inkscape-font-specification:Droid Sans"
       xml:space="preserve"><tspan
         y="226.68958"
         x="185.22704"
         id="tspan4197"
         sodipodi:role="line">2BTC</tspan></text>
    <text
       xml:space="preserve"
       style="font-size:13.65428638px;font-style:normal;font-variant:normal;font-weight:normal;font-stretch:normal;line-height:125%;letter-spacing:0px;word-spacing:0px;fill:#333333;fill-opacity:1;stroke:none;display:inline;font-family:Droid Sans;-inkscape-font-specification:Droid Sans"
       x="158.40474"
       y="226.68958"
       id="text4199"
       sodipodi:linespacing="125%"><tspan
         sodipodi:role="line"
         id="tspan4201"
         x="158.40474"
         y="226.68958">X</tspan></text>
    <text
       sodipodi:linespacing="125%"
       id="text4203"
       y="226.68958"
       x="232.74615"
       style="font-size:13.65428638px;font-style:normal;font-variant:normal;font-weight:normal;font-stretch:normal;line-height:125%;letter-spacing:0px;word-spacing:0px;fill:#333333;fill-opacity:1;stroke:none;display:inline;font-family:Droid Sans;-inkscape-font-specification:Droid Sans"
       xml:space="preserve"><tspan
         y="226.68958"
         x="232.74615"
         id="tspan4205"
         sodipodi:role="line">Y</tspan></text>
    <path
       style="font-size:medium;font-style:normal;font-variant:normal;font-weight:normal;font-stretch:normal;text-indent:0;text-align:start;text-decoration:none;line-height:normal;letter-spacing:normal;word-spacing:normal;text-transform:none;direction:ltr;block-progression:tb;writing-mode:lr-tb;text-anchor:start;baseline-shift:baseline;color:#000000;fill:#999999;fill-opacity:1;fill-rule:nonzero;stroke:none;stroke-width:3;marker:none;visibility:visible;display:inline;overflow:visible;enable-background:accumulate;font-family:Sans;-inkscape-font-specification:Sans"
       d="m 153.16101,236.79466 c -0.73192,0.0767 -1.34769,0.76408 -1.34375,1.5 l 0,17 c 8e-5,0.78538 0.71462,1.49992 1.5,1.5 l 18.5,-0.0128 5,-10 -5,-10 c 0,0 -12.45352,0.009 -18.65625,0.0128 z"
       id="path4207"
       inkscape:connector-curvature="0"
       sodipodi:nodetypes="cccccccc" />
    <path
       style="font-size:medium;font-style:normal;font-variant:normal;font-weight:normal;font-stretch:normal;text-indent:0;text-align:start;text-decoration:none;line-height:normal;letter-spacing:normal;word-spacing:normal;text-transform:none;direction:ltr;block-progression:tb;writing-mode:lr-tb;text-anchor:start;baseline-shift:baseline;color:#000000;fill:#999999;fill-opacity:1;fill-rule:nonzero;stroke:none;stroke-width:2.99999976;marker:none;visibility:visible;display:inline;overflow:visible;enable-background:accumulate;font-family:Sans;-inkscape-font-specification:Sans"
       d="m 228.75861,236.79466 c -0.73192,0.0767 -1.34769,0.76408 -1.34375,1.5 l 0,17 c 8e-5,0.78538 0.71462,1.49992 1.5,1.5 l 17,0 c 0.78539,-8e-5 1.49993,-0.71462 1.5,-1.5 l 0,-17 c -7e-5,-0.78538 -0.71461,-1.49992 -1.5,-1.5 l -17,0 c -0.052,-0.003 -0.1042,-0.003 -0.15625,0 z"
       id="path4209"
       inkscape:connector-curvature="0"
       sodipodi:nodetypes="cccccccccc" />
    <path
       sodipodi:nodetypes="cccccccc"
       inkscape:connector-curvature="0"
       id="path4211"
       d="m 178.75864,236.79466 c -0.73192,0.0767 -1.34769,0.76408 -1.34375,1.5 l 0,17 c 8e-5,0.78538 0.71462,1.49992 1.5,1.5 l 43.49997,-0.0128 5,-10 -5,-10 c 0,0 -37.45349,0.009 -43.65622,0.0128 z"
       style="font-size:medium;font-style:normal;font-variant:normal;font-weight:normal;font-stretch:normal;text-indent:0;text-align:start;text-decoration:none;line-height:normal;letter-spacing:normal;word-spacing:normal;text-transform:none;direction:ltr;block-progression:tb;writing-mode:lr-tb;text-anchor:start;baseline-shift:baseline;color:#000000;fill:#999999;fill-opacity:1;fill-rule:nonzero;stroke:none;stroke-width:3;marker:none;visibility:visible;display:inline;overflow:visible;enable-background:accumulate;font-family:Sans;-inkscape-font-specification:Sans" />
    <text
       xml:space="preserve"
       style="font-size:13.65428638px;font-style:normal;font-variant:normal;font-weight:normal;font-stretch:normal;line-height:125%;letter-spacing:0px;word-spacing:0px;fill:#333333;fill-opacity:1;stroke:none;display:inline;font-family:Droid Sans;-inkscape-font-specification:Droid Sans"
       x="185.22704"
       y="251.68958"
       id="text4213"
       sodipodi:linespacing="125%"><tspan
         sodipodi:role="line"
         id="tspan4215"
         x="185.22704"
         y="251.68958">4BTC</tspan></text>
    <text
       sodipodi:linespacing="125%"
       id="text4217"
       y="251.68958"
       x="158.40474"
       style="font-size:13.65428638px;font-style:normal;font-variant:normal;font-weight:normal;font-stretch:normal;line-height:125%;letter-spacing:0px;word-spacing:0px;fill:#333333;fill-opacity:1;stroke:none;display:inline;font-family:Droid Sans;-inkscape-font-specification:Droid Sans"
       xml:space="preserve"><tspan
         y="251.68958"
         x="158.40474"
         id="tspan4219"
         sodipodi:role="line">Z</tspan></text>
    <text
       xml:space="preserve"
       style="font-size:13.65428638px;font-style:normal;font-variant:normal;font-weight:normal;font-stretch:normal;line-height:125%;letter-spacing:0px;word-spacing:0px;fill:#333333;fill-opacity:1;stroke:none;display:inline;font-family:Droid Sans;-inkscape-font-specification:Droid Sans"
       x="232.74615"
       y="251.68958"
       id="text4221"
       sodipodi:linespacing="125%"><tspan
         sodipodi:role="line"
         id="tspan4223"
         x="232.74615"
         y="251.68958">N</tspan></text>
    <path
       sodipodi:nodetypes="cccccccc"
       inkscape:connector-curvature="0"
       id="path4225"
       d="m 153.16101,261.91501 c -0.73192,0.0767 -1.34769,0.76408 -1.34375,1.5 l 0,17 c 8e-5,0.78538 0.71462,1.49992 1.5,1.5 l 18.5,-0.0128 5,-10 -5,-10 c 0,0 -12.45352,0.009 -18.65625,0.0128 z"
       style="font-size:medium;font-style:normal;font-variant:normal;font-weight:normal;font-stretch:normal;text-indent:0;text-align:start;text-decoration:none;line-height:normal;letter-spacing:normal;word-spacing:normal;text-transform:none;direction:ltr;block-progression:tb;writing-mode:lr-tb;text-anchor:start;baseline-shift:baseline;color:#000000;fill:#999999;fill-opacity:1;fill-rule:nonzero;stroke:none;stroke-width:3;marker:none;visibility:visible;display:inline;overflow:visible;enable-background:accumulate;font-family:Sans;-inkscape-font-specification:Sans" />
    <path
       sodipodi:nodetypes="cccccccccc"
       inkscape:connector-curvature="0"
       id="path4227"
       d="m 228.75861,261.91501 c -0.73192,0.0767 -1.34769,0.76408 -1.34375,1.5 l 0,17 c 8e-5,0.78538 0.71462,1.49992 1.5,1.5 l 17,0 c 0.78539,-8e-5 1.49993,-0.71462 1.5,-1.5 l 0,-17 c -7e-5,-0.78538 -0.71461,-1.49992 -1.5,-1.5 l -17,0 c -0.052,-0.003 -0.1042,-0.003 -0.15625,0 z"
       style="font-size:medium;font-style:normal;font-variant:normal;font-weight:normal;font-stretch:normal;text-indent:0;text-align:start;text-decoration:none;line-height:normal;letter-spacing:normal;word-spacing:normal;text-transform:none;direction:ltr;block-progression:tb;writing-mode:lr-tb;text-anchor:start;baseline-shift:baseline;color:#000000;fill:#999999;fill-opacity:1;fill-rule:nonzero;stroke:none;stroke-width:2.99999976;marker:none;visibility:visible;display:inline;overflow:visible;enable-background:accumulate;font-family:Sans;-inkscape-font-specification:Sans" />
    <path
       style="font-size:medium;font-style:normal;font-variant:normal;font-weight:normal;font-stretch:normal;text-indent:0;text-align:start;text-decoration:none;line-height:normal;letter-spacing:normal;word-spacing:normal;text-transform:none;direction:ltr;block-progression:tb;writing-mode:lr-tb;text-anchor:start;baseline-shift:baseline;color:#000000;fill:#999999;fill-opacity:1;fill-rule:nonzero;stroke:none;stroke-width:3;marker:none;visibility:visible;display:inline;overflow:visible;enable-background:accumulate;font-family:Sans;-inkscape-font-specification:Sans"
       d="m 178.75864,261.91501 c -0.73192,0.0767 -1.34769,0.76408 -1.34375,1.5 l 0,17 c 8e-5,0.78538 0.71462,1.49992 1.5,1.5 l 43.49997,-0.0128 5,-10 -5,-10 c 0,0 -37.45349,0.009 -43.65622,0.0128 z"
       id="path4229"
       inkscape:connector-curvature="0"
       sodipodi:nodetypes="cccccccc" />
    <text
       sodipodi:linespacing="125%"
       id="text4231"
       y="276.80994"
       x="185.22704"
       style="font-size:13.65428638px;font-style:normal;font-variant:normal;font-weight:normal;font-stretch:normal;line-height:125%;letter-spacing:0px;word-spacing:0px;fill:#333333;fill-opacity:1;stroke:none;display:inline;font-family:Droid Sans;-inkscape-font-specification:Droid Sans"
       xml:space="preserve"><tspan
         y="276.80994"
         x="185.22704"
         id="tspan4233"
         sodipodi:role="line">8BTC</tspan></text>
    <text
       xml:space="preserve"
       style="font-size:13.65428638px;font-style:normal;font-variant:normal;font-weight:normal;font-stretch:normal;line-height:125%;letter-spacing:0px;word-spacing:0px;fill:#333333;fill-opacity:1;stroke:none;display:inline;font-family:Droid Sans;-inkscape-font-specification:Droid Sans"
       x="158.40474"
       y="276.80994"
       id="text4235"
       sodipodi:linespacing="125%"><tspan
         sodipodi:role="line"
         id="tspan4237"
         x="158.40474"
         y="276.80994">Y</tspan></text>
    <text
       sodipodi:linespacing="125%"
       id="text4239"
       y="276.80994"
       x="232.74615"
       style="font-size:13.65428638px;font-style:normal;font-variant:normal;font-weight:normal;font-stretch:normal;line-height:125%;letter-spacing:0px;word-spacing:0px;fill:#333333;fill-opacity:1;stroke:none;display:inline;font-family:Droid Sans;-inkscape-font-specification:Droid Sans"
       xml:space="preserve"><tspan
         y="276.80994"
         x="232.74615"
         id="tspan4241"
         sodipodi:role="line">A</tspan></text>
    <text
       xml:space="preserve"
       style="font-size:13.65428638px;font-style:normal;font-variant:normal;font-weight:normal;font-stretch:normal;line-height:125%;letter-spacing:0px;word-spacing:0px;fill:#ffffff;fill-opacity:1;stroke:none;display:inline;font-family:Droid Sans;-inkscape-font-specification:Droid Sans"
       x="165.9413"
       y="300.02426"
       id="text4243"
       sodipodi:linespacing="125%"><tspan
         sodipodi:role="line"
         id="tspan4245"
         x="165.9413"
         y="300.02426">Blockchain</tspan></text>
  </g>
  <g
     inkscape:groupmode="layer"
     id="layer6"
     inkscape:label="5"
     style="display:none">
    <path
       style="fill:none;stroke:#ffffff;stroke-width:3;stroke-linecap:round;stroke-linejoin:miter;stroke-miterlimit:2;stroke-opacity:1;stroke-dasharray:none;stroke-dashoffset:0;display:inline"
       d="m 285.84662,113.2528 c -3.26227,13.99562 -16.35933,30.14855 -25.96271,38.53698"
       id="path3961"
       inkscape:connector-curvature="0"
       sodipodi:nodetypes="cc" />
    <path
       inkscape:connector-curvature="0"
       id="path3963"
       d="m 289.76289,117.27508 -3.14352,-6.33391 -6.3339,3.1435"
       style="fill:none;stroke:#ffffff;stroke-width:3;stroke-linecap:round;stroke-linejoin:miter;stroke-miterlimit:4;stroke-opacity:1;stroke-dasharray:none;display:inline" />
    <path
       transform="translate(-4.65362,-11.022408)"
       d="m 265,167.36218 a 5,5 0 1 1 -10,0 5,5 0 1 1 10,0 z"
       sodipodi:ry="5"
       sodipodi:rx="5"
       sodipodi:cy="167.36218"
       sodipodi:cx="260"
       id="path4183"
       style="fill:none;stroke:#ffffff;stroke-width:3;stroke-linecap:square;stroke-linejoin:miter;stroke-miterlimit:4;stroke-opacity:1;stroke-dasharray:none;stroke-dashoffset:0;display:inline"
       sodipodi:type="arc" />
    <g
       style="display:inline"
       transform="matrix(0.32130144,0,0,0.32130144,255.1835,36.790421)"
       id="g4023">
      <path
         style="fill:#f7931a"
         inkscape:connector-curvature="0"
         d="M 63.033,39.744 C 58.759,56.887 41.396,67.32 24.251,63.045 7.113,58.771 -3.32,41.407 0.956,24.265 5.228,7.12 22.591,-3.314 39.731,0.96 56.875,5.234 67.307,22.6 63.033,39.744 z"
         id="path4025" />
      <path
         style="fill:#ffffff"
         inkscape:connector-curvature="0"
         d="M 46.103,27.444 C 46.74,23.186 43.498,20.897 39.065,19.37 l 1.438,-5.768 -3.511,-0.875 -1.4,5.616 c -0.923,-0.23 -1.871,-0.447 -2.813,-0.662 l 1.41,-5.653 -3.509,-0.875 -1.439,5.766 c -0.764,-0.174 -1.514,-0.346 -2.242,-0.527 l 0.004,-0.018 -4.842,-1.209 -0.934,3.75 c 0,0 2.605,0.597 2.55,0.634 1.422,0.355 1.679,1.296 1.636,2.042 l -1.638,6.571 c 0.098,0.025 0.225,0.061 0.365,0.117 -0.117,-0.029 -0.242,-0.061 -0.371,-0.092 l -2.296,9.205 c -0.174,0.432 -0.615,1.08 -1.609,0.834 0.035,0.051 -2.552,-0.637 -2.552,-0.637 l -1.743,4.019 4.569,1.139 c 0.85,0.213 1.683,0.436 2.503,0.646 l -1.453,5.834 3.507,0.875 1.439,-5.772 c 0.958,0.26 1.888,0.5 2.798,0.726 l -1.434,5.745 3.511,0.875 1.453,-5.823 c 5.987,1.133 10.489,0.676 12.384,-4.739 1.527,-4.36 -0.076,-6.875 -3.226,-8.515 2.294,-0.529 4.022,-2.038 4.483,-5.155 z m -8.022,11.249 c -1.085,4.36 -8.426,2.003 -10.806,1.412 l 1.928,-7.729 c 2.38,0.594 10.012,1.77 8.878,6.317 z m 1.086,-11.312 c -0.99,3.966 -7.1,1.951 -9.082,1.457 l 1.748,-7.01 c 1.982,0.494 8.365,1.416 7.334,5.553 z"
         id="path4027" />
    </g>
  </g>
</svg>
